<svg width="631" height="241" viewBox="0 0 631 241" fill="none" xmlns="http://www.w3.org/2000/svg">
<path d="M351.477 104.462L350.919 73.2123L350.904 73.2425L336.878 104.462H351.477Z" fill="#CFCFCF"/>
<path d="M256.869 103.331C262.314 103.331 267.019 99.5601 268.211 94.2513C269.085 90.3452 266.114 86.6351 262.103 86.6351H242.466L238.741 103.346H256.869V103.331Z" fill="#CFCFCF"/>
<path d="M540.225 73.2425L526.199 104.462H540.798L540.24 73.2123L540.225 73.2425Z" fill="#CFCFCF"/>
<path d="M629.69 158.831C629.569 158.681 613.703 142.136 613.703 142.136C612.708 140.975 611.245 140.311 609.722 140.311H602.045L596.691 94.3268C596.57 93.3012 596.163 92.3812 595.545 91.6271C593.509 89.0481 591.488 86.4692 589.452 83.9053C583.117 75.8516 576.768 67.813 570.419 59.7594C569.438 58.4775 567.84 57.6932 566.226 57.6781H520.513C518.583 57.6781 516.818 58.7188 515.883 60.4079L510.846 69.5625C510.122 70.8897 508.267 71.0406 507.332 69.8491C505.22 67.1796 503.109 64.5102 501.012 61.8256C500.635 61.3732 500.289 60.8905 499.911 60.4532C498.856 58.8545 497.167 57.6329 495.176 57.6781C492.883 57.8893 420.34 57.1653 420.099 58.1457C410.492 59.8951 401.88 66.0787 396.828 74.4038C395.938 75.8516 393.917 76.0326 392.861 74.6903C388.94 69.7134 385.019 64.7364 381.082 59.7594C380.102 58.4775 378.503 57.6932 376.89 57.6781H331.177C329.247 57.6781 327.482 58.7188 326.547 60.4079L316.457 78.7473C315.688 80.1348 313.758 80.3007 312.777 79.049C309.987 75.5047 307.197 71.9756 304.407 68.4314C300.576 62.8361 294.589 58.5679 287.696 57.9647L154.51 57.6781C149.216 57.7686 144.39 55.3555 141.569 50.9064C140.076 48.976 138.282 47.2717 136.261 45.8842C132.234 42.2344 125.854 36.4279 121.842 32.7782C120.651 31.2549 119.444 29.7317 118.238 28.2084C116.956 26.3684 115.207 24.4078 112.778 24.5285C105.75 25.2825 101.829 36.6693 103.111 42.8377C103.488 45.7032 105.901 49.6999 107.47 52.0526C107.575 52.2185 107.364 52.3844 107.228 52.2487C105.041 49.8205 100.894 45.1452 96.8068 39.9571C93.7 35.9604 89.7486 31.9788 84.5906 31.0438C80.0057 30.2294 76.7028 35.8247 79.5985 39.4594C82.4791 42.5361 84.9676 50.3182 78.9953 51.374C73.4452 44.3308 67.9102 37.3027 62.3601 30.2595C61.4703 29.1284 60.5805 28.0123 59.6906 26.8812C55.2717 21.0446 48.7564 16.882 41.6529 15.1778C38.2595 14.3784 34.7304 14.107 31.2766 14.484C30.0852 14.6198 28.939 15.1627 28.0944 16.0073C25.5758 12.8099 23.0722 9.6277 20.5535 6.43037C16.4664 1.31766 12.5904 -5.58978 5.27573 -5.99699C1.49021 -6.13272 -1.26974 -1.65345 0.600392 1.67962C1.80693 3.62516 3.42068 5.31432 4.77803 7.16937C6.57276 11.2565 5.09475 16.9574 4.09935 21.5121C1.49021 30.9382 1.56562 41.8272 7.71897 49.8507C14.8677 58.9299 22.0315 68.0091 29.1803 77.0883C22.9666 93.4219 33.5842 101.536 42.4824 113.36C37.3998 114.928 28.8183 119.423 33.7199 125.486C35.8464 128.185 37.9729 130.885 40.0995 133.569C44.9256 139.693 49.7367 145.801 54.5629 151.924C55.513 153.13 56.4632 154.337 57.4133 155.544C58.6952 157.384 60.3693 159.223 62.7824 159.118C65.0447 158.892 67.1863 157.987 69.5541 158.138C75.7979 158.138 82.63 161.26 87.8332 166.493C94.9819 173.702 104.393 177.834 113.638 177.834C126.548 177.834 136.788 170.384 139.745 157.7C139.971 156.72 140.8 156.011 141.811 156.011H163.589C164.207 156.011 164.795 156.147 165.368 156.343L151.403 217.303C151.041 218.857 151.418 220.501 152.413 221.752C152.489 221.858 168.385 238.433 168.4 238.448C169.395 239.7 170.903 240.424 172.502 240.424H614.608C617.202 240.424 619.404 238.523 619.796 235.974L630.942 163.054C631.168 161.546 630.73 160.008 629.735 158.846L629.69 158.831ZM391.67 113.345L398.11 85.0515C400.885 72.8353 413.041 62.9417 425.257 62.9266H495.206L491.692 78.3552H433.039L425.423 111.776H450.76L452.811 102.788L437.805 87.359H489.641L488.102 94.1307H488.208L482.96 117.206C480.667 127.28 470.623 135.455 460.548 135.455H408.742C396.526 135.455 388.88 125.546 391.655 113.33L391.67 113.345ZM331.237 62.9417H376.95L385.441 135.47H352.02L351.733 118.759H330.468L322.957 135.47H291.361L331.252 62.9417H331.237ZM214.324 62.9417L287.742 63.2282C297.952 64.8721 304.03 74.0117 301.572 85.0515L301.149 86.9367L298.706 97.9011C297.937 101.34 296.414 104.597 294.362 107.508C292.749 109.786 290.818 111.837 288.647 113.601C287.41 114.612 286.098 115.517 284.725 116.316L286.957 135.47H253.536L251.591 118.759H235.272L231.547 135.47H198.126L214.309 62.9417H214.324ZM148.039 103.331L144.601 118.759H110.561C110.531 118.97 110.486 119.166 110.456 119.362C109.943 122.198 109.355 124.671 108.631 126.858C107.123 131.352 104.936 134.58 101.226 136.948C100.954 137.129 100.668 137.295 100.381 137.461C98.4356 138.577 96.3845 139.361 94.2881 139.874C94.0468 139.934 93.7905 139.979 93.5491 140.04C93.2626 140.1 92.9911 140.145 92.7046 140.19C91.4226 140.417 90.1407 140.537 88.8436 140.552C88.5571 140.552 88.2705 140.552 87.9689 140.552C87.3053 140.552 86.6417 140.507 85.9781 140.447C85.7368 140.432 85.4955 140.417 85.2391 140.386C84.3644 140.281 83.5047 140.145 82.6451 139.949C82.3887 139.889 82.1172 139.813 81.8608 139.753C81.2424 139.602 80.6241 139.436 80.0208 139.24C79.6739 139.135 79.3421 139.014 78.9953 138.893C78.4523 138.697 77.9094 138.486 77.3664 138.26C77.0346 138.124 76.7029 137.988 76.3861 137.853C75.6019 137.491 74.8176 137.099 74.0485 136.676C73.7619 136.51 73.4754 136.329 73.2039 136.164C72.6911 135.862 72.1783 135.545 71.6806 135.198C71.3337 134.957 70.9718 134.716 70.6249 134.459C70.2026 134.158 69.7803 133.826 69.3731 133.509C69.0262 133.238 68.6794 132.966 68.3476 132.68C67.8951 132.288 67.4577 131.865 67.0053 131.458C66.7791 131.247 66.5528 131.036 66.3266 130.825C62.164 126.632 56.9005 123.389 51.2901 121.866C51.2147 121.851 51.1544 121.821 51.079 121.806C50.6416 121.685 50.2042 121.595 49.7518 121.504C49.5557 121.459 49.3596 121.414 49.1636 121.368C48.6357 121.263 48.0928 121.187 47.5649 121.127C47.4594 121.127 47.3538 121.097 47.2482 121.082C44.6994 120.78 42.1053 120.871 39.5565 121.383C38.8778 121.519 38.1992 121.685 37.5356 121.881C38.3952 121.112 39.6772 120.267 41.2758 119.513C41.3211 119.498 41.3512 119.468 41.3965 119.453C41.683 119.317 41.9998 119.197 42.3014 119.076C42.603 118.955 42.9047 118.82 43.2214 118.699C43.4627 118.608 43.7342 118.533 43.9755 118.442C44.3827 118.307 44.7748 118.171 45.1971 118.05C45.5591 117.945 45.9512 117.869 46.3433 117.779C46.66 117.703 46.9767 117.613 47.2935 117.553C47.8062 117.447 48.3492 117.372 48.8921 117.311C49.1033 117.281 49.3144 117.236 49.5256 117.221C50.0082 117.176 50.5059 117.145 51.0036 117.13C51.275 117.13 51.5465 117.085 51.818 117.085C51.8632 117.085 51.9085 117.085 51.9537 117.085C52.3609 117.085 52.7681 117.115 53.1753 117.13C53.5675 117.145 53.9596 117.161 54.3366 117.191C54.6684 117.221 54.9851 117.281 55.3169 117.326C55.7543 117.387 56.1917 117.432 56.6291 117.522C56.8402 117.568 57.0513 117.628 57.2776 117.673C57.8054 117.779 58.3182 117.9 58.8159 118.035C58.8611 118.035 58.9215 118.065 58.9667 118.08C62.3903 119.031 65.3463 120.463 67.5633 121.579C68.1515 121.881 69.2072 122.424 70.5042 122.937C72.1029 123.555 74.1088 124.098 76.175 124.023C77.2759 123.977 78.392 123.766 79.4779 123.284C79.508 123.284 79.5382 123.269 79.5533 123.254C84.3493 121.067 85.043 115.456 84.1231 111.445C82.9618 106.377 77.8189 103.044 72.6911 102.169C69.9161 101.702 67.0958 101.792 64.2906 102.079C61.9077 102.32 59.5398 102.697 57.172 103.014C56.81 103.059 56.433 103.089 56.0559 103.134C55.5582 103.195 55.0455 103.255 54.5478 103.3C54.3819 103.3 54.216 103.346 54.0652 103.346C53.9445 103.346 53.8088 103.361 53.6881 103.376C53.3714 103.406 53.0547 103.421 52.7229 103.436C52.557 103.436 52.3911 103.451 52.2101 103.451C50.7623 103.512 49.3144 103.481 47.8967 103.331C47.8515 103.331 47.8062 103.331 47.761 103.331C47.4443 103.3 47.1276 103.24 46.8259 103.195C46.5092 103.15 46.2076 103.089 45.8909 103.029C45.6797 102.984 45.4686 102.938 45.2423 102.878C44.805 102.773 44.3676 102.652 43.9453 102.516C43.8096 102.471 43.6889 102.441 43.5532 102.396C43.0706 102.23 42.588 102.034 42.1053 101.822C42.0148 101.777 41.9093 101.747 41.8188 101.702C41.7735 101.687 41.7283 101.656 41.6981 101.626C40.944 101.249 40.2352 100.827 39.5716 100.329C39.5565 100.314 39.5264 100.299 39.5113 100.284C38.9834 99.8919 38.4706 99.4696 38.0031 99.0172C35.9671 97.0716 34.4287 94.5831 33.5389 91.8835C33.3881 91.4461 33.2674 91.0088 33.1468 90.5563C33.1468 90.5412 33.1468 90.5111 33.1468 90.496C32.7547 88.9426 32.5888 87.3288 32.634 85.7302C32.7245 82.9702 33.4786 80.3007 34.6851 77.8273C36.3139 74.4792 38.8024 71.5232 41.8489 69.3514C41.8489 69.3514 41.864 69.3363 41.8791 69.3212C37.4451 75.2031 39.4359 84.7348 45.7099 88.5957C47.5951 89.757 49.7518 90.3603 51.9386 90.4508C51.9839 90.4508 52.0291 90.4508 52.0593 90.4508C52.5419 90.4658 53.0396 90.4508 53.5222 90.4357C53.7183 90.4357 53.9143 90.3904 54.1255 90.3753C54.4422 90.3452 54.774 90.315 55.0907 90.2547C55.4527 90.1944 55.7996 90.1039 56.1464 90.0285C56.2973 89.9983 56.4632 89.9681 56.614 89.9229C57.0966 89.7871 57.5641 89.6363 58.0166 89.4704C58.0317 89.4704 58.0618 89.4704 58.0769 89.4403C58.1975 89.395 58.3031 89.3649 58.4238 89.3196C58.6651 89.214 58.8913 89.0783 59.1326 88.9727C59.3438 88.8672 59.57 88.7616 59.7811 88.656C60.1431 88.46 60.5051 88.2639 60.8519 88.0527C60.9726 87.9773 61.0932 87.8868 61.2139 87.7964C61.8775 87.3439 62.4958 86.8462 63.069 86.3033C63.2047 86.1675 63.3555 86.0469 63.4762 85.9111C63.7024 85.6698 63.9135 85.4134 64.1247 85.1721C64.3811 84.8705 64.6224 84.5538 64.8486 84.222C64.924 84.1013 65.0296 84.0108 65.0899 83.8902C65.1201 83.8299 65.1502 83.7695 65.1804 83.7092C65.4669 83.2417 65.7233 82.7741 65.9496 82.2764C65.9496 82.2614 65.9646 82.2463 65.9797 82.2312C66.1607 81.8391 66.2814 81.4469 66.4322 81.0397C66.4925 80.8588 66.583 80.6778 66.6433 80.4817C66.8394 79.8634 66.96 79.2149 67.0807 78.5814C67.141 78.2647 67.1863 77.9329 67.2315 77.6011C67.2315 77.5709 67.2315 77.5559 67.2315 77.5257C67.4728 75.1277 67.1259 72.6694 66.221 70.4524C66.0099 69.9245 65.7686 69.3966 65.482 68.8839C63.446 65.2492 60.0526 62.7908 56.1766 61.1469C53.4166 59.9856 50.4003 59.2466 47.4594 58.8243C47.4292 58.8243 47.4141 58.8243 47.399 58.8243C40.3106 57.8289 32.996 58.1758 26.1639 56.0342C14.4907 52.3995 7.05538 44.6324 7.73405 31.3303C8.24683 21.4216 15.9385 8.49657 5.27573 -0.642969C10.856 0.337344 14.0835 6.4002 14.928 12.0106C15.7726 17.621 15.1241 23.4878 16.9188 28.8569C19.2716 35.9303 26.0433 41.3144 33.4635 42.0233C34.3835 42.1138 35.3186 42.1138 36.2687 42.0233C40.386 41.6161 44.3978 39.5046 45.6345 35.6739C45.9512 34.6936 46.0417 33.6831 45.9663 32.6726C45.8456 30.9985 45.2423 29.3546 44.3223 27.8766C43.704 26.8963 42.965 25.9763 42.1355 25.2071C40.7178 23.9101 39.0739 22.8996 37.3395 22.04C35.6202 21.1954 33.8104 20.5016 32.0157 19.823C31.9704 19.8079 31.9402 19.7928 31.895 19.7777C32.4681 19.7174 33.0412 19.6721 33.5992 19.6571C42.1807 19.3554 50.8527 23.5481 55.8448 30.5461C58.8762 34.7991 60.5654 39.8515 62.8729 44.5268C64.0191 46.8494 65.3915 49.1569 67.0807 51.1477C67.1259 51.2081 67.1863 51.2533 67.2315 51.3136C67.5482 51.6756 67.8649 52.0074 68.1967 52.3392C68.3476 52.49 68.4833 52.6257 68.6341 52.7615C69.0112 53.1234 69.4184 53.4703 69.8256 53.8021C69.9161 53.8775 70.0066 53.9379 70.097 53.9982C70.5193 54.3149 70.9416 54.6015 71.379 54.8729C71.4393 54.9031 71.4996 54.9483 71.5449 54.9785C72.0878 55.2952 72.6308 55.5818 73.219 55.8231C73.6563 56.0041 74.0937 56.1549 74.5311 56.2906C74.5612 56.2906 74.5914 56.3057 74.6216 56.3208C75.0137 56.4263 75.4058 56.5168 75.7979 56.5922C75.8884 56.6073 75.994 56.6224 76.0845 56.6375C76.4012 56.6827 76.7028 56.7129 77.0045 56.7431C77.1855 56.7431 77.3664 56.7581 77.5474 56.7732C77.7435 56.7732 77.9395 56.7732 78.1205 56.7732C78.7238 56.7732 79.3271 56.7129 79.9153 56.6224C80.0812 56.5922 80.2471 56.547 80.4129 56.5018C80.6995 56.4414 80.971 56.3811 81.2424 56.2906C82.7054 55.8382 84.0326 55.0841 85.1185 54.0736C85.2994 53.8926 85.4804 53.7267 85.6463 53.5307C85.7066 53.4703 85.767 53.41 85.8122 53.3346C87.2148 51.7058 88.0594 49.5641 87.9689 47.0455C87.9689 46.6986 87.9237 46.3367 87.8935 45.9898C87.8935 45.8691 87.8935 45.7635 87.8633 45.6429C87.8633 45.6429 87.8633 45.6127 87.8633 45.5976C87.6522 43.7728 87.1394 41.8574 86.3552 40.123C86.2345 39.8666 86.1139 39.6102 85.9932 39.3689C85.948 39.2935 85.9178 39.2181 85.8725 39.1427C85.2994 38.0719 84.6358 37.0915 83.8365 36.2922C83.8365 36.2922 88.2404 36.6843 93.6698 44.6023C98.3904 51.4795 94.2731 57.4519 100.426 63.8315C104.106 67.6472 108.857 68.1599 112.582 68.1599C114.392 68.1599 116.247 67.798 117.801 67.0741C119.384 66.335 120.666 65.2039 121.254 63.6505C121.42 63.2131 121.541 62.7607 121.631 62.3233C121.858 61.2827 121.858 60.2571 121.707 59.2919C121.707 59.2466 121.707 59.2014 121.692 59.1561C121.646 58.945 121.586 58.7188 121.541 58.5076C121.481 58.2814 121.405 58.0552 121.33 57.8289C121.3 57.7535 121.284 57.6932 121.254 57.6178C120.953 56.8335 120.545 56.0795 120.033 55.4309C118.509 53.4251 115.991 52.5051 113.925 51.0422C111.738 49.5038 110.064 47.2717 109.113 44.7682C108.616 43.4711 108.299 42.0987 108.224 40.7112C108.148 39.3236 108.329 37.921 108.691 36.5788C109.385 34.0149 110.803 31.632 112.793 29.8674C112.793 29.8674 112.809 29.8523 112.824 29.8372C112.688 30.0333 112.582 30.2294 112.477 30.4254C112.1 31.1041 111.813 31.8129 111.632 32.5519C111.225 34.2713 111.3 36.1263 111.677 37.906C111.753 38.2378 111.843 38.5545 111.934 38.8712C111.934 38.9014 111.949 38.9315 111.964 38.9466C111.964 38.9768 111.979 38.9918 111.994 39.022C112.326 40.0023 112.793 40.9223 113.397 41.7669C114.211 42.9282 115.267 43.9085 116.473 44.6475C120.063 46.8344 124.557 46.6835 128.569 47.9353C132.4 49.1268 135.808 51.6605 138.04 55.0087C138.086 55.0841 138.161 55.1746 138.206 55.25C138.417 55.5516 138.674 55.8834 138.96 56.2303C140.287 57.8139 142.444 59.7292 145.506 61.1168C147.919 62.2177 150.92 62.9718 154.54 62.9718H165.021L159.743 86.6501H117.695L113.97 103.361H148.009L148.039 103.331ZM156.802 135.47L172.985 62.9417H206.406L190.223 135.47H156.802ZM609.133 149.496L599.029 215.584C598.772 217.258 597.34 218.48 595.65 218.48H160.768C158.567 218.48 156.953 216.444 157.435 214.302L172.562 148.214C172.924 146.66 174.297 145.559 175.895 145.559H564.612L541.326 135.47L541.039 118.759H519.774L512.263 135.47H480.667L520.558 62.9417H566.271L575.275 140.311L575.878 145.559H605.755C607.851 145.559 609.45 147.43 609.133 149.496Z" fill="#CFCFCF"/>
<path d="M291.452 169.841L293.428 160.822H247.896L238.636 203.217H285.208L288.225 189.387H262.284L263.671 183.038H284.665L286.641 174.019H265.632L266.552 169.841H291.452Z" fill="#CFCFCF"/>
<path d="M467.366 172.737C468.271 166.071 463.55 160.822 456.371 160.822H413.132L410.93 170.912L410.115 174.667L403.872 203.217H424.488L426.63 193.444H436.689L438.062 203.217H458.679L457.11 192.026C461.288 189.704 464.56 185.752 465.541 181.273L467.185 173.762C467.26 173.415 467.305 173.084 467.351 172.752L467.366 172.737ZM445.392 179.207L445.105 180.504C444.592 182.811 442.571 184.425 440.188 184.425H428.606L430.747 174.652H441.681C444.049 174.652 445.889 176.899 445.392 179.192V179.207Z" fill="#CFCFCF"/>
<path d="M239.887 172.737C240.792 166.071 236.072 160.822 228.893 160.822H185.653L183.044 172.737L182.622 174.652L176.378 203.202H196.995L199.136 193.429H209.196L210.568 203.202H231.185L229.617 192.011C233.794 189.689 237.067 185.737 238.047 181.258L239.691 173.747C239.767 173.4 239.812 173.069 239.857 172.737H239.887ZM217.913 179.207L217.627 180.504C217.114 182.811 215.093 184.425 212.71 184.425H201.127L203.269 174.652H214.203C216.571 174.652 218.411 176.899 217.913 179.192V179.207Z" fill="#CFCFCF"/>
<path d="M558.233 160.822H549.093C548.067 160.822 547.057 160.958 546.062 161.199C540.889 162.436 536.334 166.659 535.233 171.696L535.007 172.737L534.826 173.551C533.514 179.554 537.586 184.425 543.935 184.425H558.534L557.448 189.372H531.372L528.341 203.202H563.677C569.966 203.202 576.104 198.376 577.401 192.433L578.774 186.175C579.618 182.344 578.231 178.981 575.471 177.08C574.536 176.432 573.465 175.964 572.259 175.693C571.474 175.512 570.645 175.406 569.77 175.406H555.065L556.272 169.886H582.348L584.324 160.867H558.248V160.837L558.233 160.822Z" fill="#CFCFCF"/>
<path d="M318.479 169.841H343.59L345.566 160.822H313.472C306.293 160.822 299.28 166.071 297.274 172.737C297.168 173.069 297.078 173.415 297.002 173.747L293.383 190.277C291.814 197.41 296.671 203.202 304.211 203.202H336.305L339.337 189.372H314.226L318.494 169.841H318.479Z" fill="#CFCFCF"/>
<path d="M405.138 172.737C406.043 166.071 401.323 160.822 394.144 160.822H363.678V160.867C361.205 161.018 358.807 161.772 356.62 162.949C352.714 165.075 349.592 168.619 348.355 172.722C348.25 173.069 348.159 173.4 348.084 173.747L344.464 190.277C342.896 197.41 347.752 203.202 355.293 203.202H384.883C392.424 203.202 399.799 197.41 401.368 190.277L404.987 173.747C405.063 173.4 405.108 173.069 405.153 172.737H405.138ZM384.567 172.737L380.932 189.387H365.292L369.56 169.856H385.2L384.567 172.752V172.737Z" fill="#CFCFCF"/>
<path d="M529.607 172.737C530.512 166.071 525.791 160.822 518.612 160.822H475.373L466.098 203.217H509.337C516.878 203.217 524.253 197.426 525.821 190.292L529.441 173.762C529.516 173.415 529.562 173.084 529.607 172.752V172.737ZM505.401 189.387H489.761L494.029 169.856H509.669L505.401 189.387Z" fill="#CFCFCF"/>
</svg>
