<svg width="640" height="117" viewBox="0 0 640 117" fill="none" xmlns="http://www.w3.org/2000/svg">
<path d="M158.769 55.876H146.923L144.675 65.9572H155.612C158.896 65.9572 161.735 63.6825 162.454 60.4798C162.982 58.1233 161.189 55.8851 158.769 55.8851V55.876Z" fill="black"/>
<path d="M318.094 66.6398H326.901L326.564 47.7876L318.094 66.6398Z" fill="black"/>
<path d="M203.88 66.6398H212.687L212.351 47.7876L203.88 66.6398Z" fill="black"/>
<path d="M638.927 49.6434C638.854 49.5525 629.237 39.5168 629.237 39.5168C628.636 38.8162 627.754 38.4067 626.816 38.4067H361.985C360.502 38.4067 359.21 39.4349 358.883 40.8815L355.926 53.7833C352.213 49.0793 348.51 44.3663 344.798 39.6623C344.207 38.889 343.242 38.4158 342.269 38.4067H314.691C313.526 38.4067 312.462 39.0345 311.898 40.0536L308.859 45.5764C308.422 46.3771 307.303 46.4681 306.739 45.7493C305.465 44.1388 304.191 42.5284 302.927 40.9088C302.699 40.6359 302.49 40.3447 302.262 40.0809C301.626 39.1164 300.607 38.3795 299.406 38.4067C298.023 38.5341 254.259 38.0974 254.113 38.6888C248.317 39.7442 243.122 43.4746 240.074 48.497C239.537 49.3705 238.318 49.4797 237.681 48.6699C235.315 45.6674 232.95 42.6649 230.575 39.6623C229.984 38.889 229.019 38.4158 228.046 38.4067H200.468C199.303 38.4067 198.239 39.0345 197.675 40.0536L191.588 51.1174C191.124 51.9545 189.959 52.0546 189.368 51.2994C187.685 49.1612 186.001 47.0322 184.318 44.894C182.007 41.5184 178.395 38.9436 174.237 38.5796L93.8877 38.4067C90.6941 38.4613 87.7826 37.0056 86.0812 34.3215C85.1804 33.1569 84.0977 32.1288 82.8785 31.2917C80.4492 29.0898 76.6005 25.5869 74.1803 23.3851C73.4615 22.4661 72.7336 21.5472 72.0057 20.6282C71.2324 19.5182 70.1769 18.3354 68.7121 18.4082C64.4722 18.8631 62.1065 25.7325 62.8799 29.4538C63.1074 31.1825 64.5631 33.5936 65.5094 35.013C65.5731 35.1131 65.4457 35.2132 65.3638 35.1313C64.0445 33.6664 61.5424 30.8459 59.0767 27.716C57.2024 25.3049 54.8186 22.9028 51.7069 22.3387C48.9409 21.8474 46.9484 25.223 48.6953 27.4157C50.4331 29.2718 51.9344 33.9667 48.3313 34.6036C44.9831 30.3545 41.6439 26.1146 38.2957 21.8656C37.7588 21.1832 37.222 20.5099 36.6852 19.8275C34.0193 16.3064 30.0888 13.7952 25.8034 12.7671C23.7562 12.2848 21.6271 12.1211 19.5436 12.3485C18.8248 12.4304 18.1333 12.758 17.6238 13.2675C16.1043 11.3386 14.594 9.4188 13.0745 7.48991C10.5906 4.41461 8.25228 0.247478 3.83949 0.00181754C1.55576 -0.0800693 -0.109275 2.6222 1.01894 4.63297C1.74683 5.80668 2.72037 6.82572 3.53924 7.94484C4.62196 10.4105 3.73031 13.8498 3.1298 16.5975C1.55576 22.2841 1.60125 28.8533 5.31345 33.6937C9.62616 39.171 13.948 44.6483 18.2607 50.1257C14.5121 59.9794 20.9174 64.8744 26.2856 72.0077C23.2194 72.9539 18.0423 75.6653 20.9993 79.3229C22.2822 80.9515 23.5651 82.5802 24.848 84.1997C27.7596 87.8937 30.662 91.5786 33.5735 95.2726C34.1467 96.0005 34.7199 96.7284 35.2931 97.4563C36.0665 98.5663 37.0765 99.6763 38.5322 99.6126C39.897 99.4761 41.189 98.9302 42.6175 99.0212C46.3843 99.0212 50.5059 100.905 53.6449 104.062C57.9576 108.411 63.6351 110.904 69.2125 110.904C77.0008 110.904 83.1787 106.409 84.9621 98.7574C85.0985 98.1659 85.599 97.7383 86.2086 97.7383H99.3469C100.384 97.7383 101.358 98.2114 101.995 99.0212C103.669 101.141 106.908 105.254 107.754 106.336C108.364 107.228 109.364 107.838 110.465 107.819H155.567C157.059 107.819 158.351 106.782 158.678 105.326L159.752 100.513C159.907 99.8037 160.817 99.6035 161.262 100.168C162.937 102.297 164.62 104.426 166.303 106.555C166.885 107.319 167.804 107.81 168.832 107.81H210.704C211.959 107.81 213.097 107.073 213.606 105.927L217.2 99.4034C217.664 98.5663 218.802 98.4025 219.484 99.0758L226.499 106.073C227.609 107.183 229.119 107.801 230.684 107.801H245.788C247.38 107.801 248.827 106.882 249.509 105.445L250.555 103.225C250.828 102.652 251.574 102.515 252.02 102.952C253.704 104.599 257.598 107.801 262.447 107.801H292.209C294.392 107.801 296.521 107.174 298.359 105.982L301.789 103.762C302.29 103.434 302.963 103.57 303.3 104.071L304.41 105.709C305.301 107.019 306.784 107.801 308.368 107.81H324.891C326.146 107.81 327.283 107.073 327.793 105.927L330.977 98.8392C331.214 98.3024 331.924 98.175 332.333 98.5936L339.503 105.863C340.604 106.973 341.896 107.865 343.333 108.484L362.358 116.727C364.496 117.737 367.144 115.79 366.789 113.433L365.124 99.1213H629.746C631.32 99.1213 632.658 97.9749 632.894 96.419L639.654 52.1819C639.791 51.263 639.527 50.3349 638.927 49.6252V49.6434ZM89.9572 65.9571L87.8827 75.2649H67.3473C66.1736 84.0086 61.8518 88.2394 53.9906 88.4305C49.223 88.4305 44.3644 86.2469 40.6795 82.5347C36.1484 77.9854 29.5247 75.2922 23.3104 77.1483C24.7024 75.8563 28.2782 74.2186 32.1268 74.2368C35.93 74.2368 39.2692 75.8563 41.4347 76.9482C42.5265 77.6578 46.5389 79.1864 48.6771 77.9581C51.5704 76.6388 51.989 73.2542 51.4339 70.8339C50.7334 67.7768 47.6308 65.7661 44.5373 65.2383C38.3866 64.192 31.8539 67.7131 25.9216 64.9381C18.0969 60.9347 19.0795 49.971 25.9398 45.4126C23.2649 48.9611 24.4659 54.7113 28.2509 57.0406C32.7455 59.8065 39.4603 57.2771 40.8705 52.1546C43.1088 44.621 36.112 39.7988 29.2608 39.0891C24.9845 38.4886 20.5717 38.6979 16.4501 37.4059C9.4078 35.2132 4.92222 30.5274 5.33165 22.5025C5.641 16.5248 10.2904 8.71822 3.83949 3.2045C7.20595 3.79591 9.15304 7.45352 9.66255 10.8382C10.1721 14.2228 9.78084 17.7622 10.8636 21.0012C12.2829 25.2685 16.3682 28.5166 20.8447 28.9443C23.7926 29.2263 27.2773 27.9525 28.1872 25.1047C29.5702 20.0277 24.0473 16.825 19.8984 15.5239C25.403 14.9325 31.1351 17.5165 34.356 22.0203C36.1848 24.5861 37.2038 27.6341 38.5959 30.4546C40.3428 34.1031 43.3908 37.8608 47.6853 37.8517C54.7458 37.7426 55.1643 29.7813 51.2429 25.4959C51.2429 25.4959 53.8997 25.7325 57.1751 30.5092C60.023 34.6581 57.5391 38.2612 61.2513 42.1099C63.4713 44.4118 66.3374 44.7211 68.5847 44.7211C73.3796 44.894 75.7361 40.6723 73.0794 37.0511C72.1604 35.841 70.641 35.2859 69.3945 34.4034C65.1454 31.5465 64.7997 24.8863 68.7303 21.6017C66.8833 24.4496 68.0024 28.826 70.923 30.5456C73.0885 31.8649 75.7998 31.7739 78.22 32.5291C80.5311 33.2479 82.5873 34.7764 83.9339 36.7963C87.7917 42.4101 94.3427 41.6094 100.211 41.6003L97.0267 55.885H71.66L69.4127 65.9662H89.9481L89.9572 65.9571ZM95.2434 85.3461L105.006 41.5912H125.169L115.406 85.3461H95.2434ZM173.6 83.863C173.354 84.3271 173.236 84.8366 173.236 85.3461H153.611L152.437 75.2649H142.592L140.345 85.3461H120.183L129.945 41.5912L174.237 41.7641C180.406 42.7559 184.063 48.2696 182.58 54.9297C180.788 63.0274 180.333 69.0688 172.426 73.791L173.6 83.863ZM213.015 85.3461L212.842 75.2649H200.013L195.482 85.3461H176.421L176.885 84.4999L200.486 41.5912H228.064L233.186 85.3461H213.024H213.015ZM278.497 85.3461H247.244C239.874 85.3461 235.261 79.3684 236.935 71.9986L240.82 54.9297C242.494 47.5599 249.837 41.5821 257.206 41.5821H299.406L297.286 50.8899H261.901L257.307 71.0523H272.592L273.829 65.6296L264.776 56.3218H296.048L295.12 60.407H295.184L292.018 74.3278C290.635 80.4147 284.575 85.337 278.497 85.337V85.3461ZM327.229 85.3461L327.056 75.2649H314.227L309.696 85.3461H290.635L314.7 41.5912H342.278L348.438 94.5265L327.247 85.3461H327.229ZM626.453 43.9751L620.329 84.0723C620.174 85.0823 619.301 85.8283 618.282 85.8283H354.461C353.132 85.8283 352.141 84.5909 352.441 83.2898L358.464 56.986L361.621 43.1926C361.84 42.2463 362.677 41.5821 363.641 41.5821H624.405C625.679 41.5821 626.644 42.7104 626.453 43.966V43.9751Z" fill="black"/>
<path d="M433.727 56.3222L434.919 50.854H419.825H413.092H407.305L401.682 76.5756H402.192H414.193H429.942L431.771 68.1776H416.031L416.877 64.3289H429.615L430.816 58.8607H418.069L418.624 56.3222H433.727Z" fill="black"/>
<path d="M533.784 50.854H507.553L505.715 59.252L501.93 76.5756H514.44L515.732 70.6524H521.837L522.665 76.5756H535.176L534.229 69.7881C536.759 68.3778 538.751 65.9849 539.352 63.2644L540.353 58.706C541.299 54.3751 538.36 50.8631 533.784 50.8631V50.854ZM527.114 61.9997L526.942 62.7913C526.632 64.1925 525.413 65.1751 523.957 65.1751H516.933L518.225 59.252H524.867C526.305 59.252 527.415 60.6167 527.114 62.0088V61.9997Z" fill="black"/>
<path d="M395.787 50.854H369.556L367.718 59.252L363.933 76.5756H376.443L377.735 70.6524H383.84L384.668 76.5756H397.179L396.232 69.7881C398.762 68.3778 400.754 65.9849 401.355 63.2644L402.356 58.706C403.302 54.3751 400.363 50.8631 395.787 50.8631V50.854ZM389.117 61.9997L388.945 62.7913C388.635 64.1925 387.416 65.1751 385.96 65.1751H378.936L380.228 59.252H386.87C388.308 59.252 389.418 60.6167 389.117 62.0088V61.9997Z" fill="black"/>
<path d="M595.581 50.854H590.031C586.182 50.854 582.425 53.811 581.624 57.4504L581.378 58.5787C580.578 62.2181 583.052 65.1751 586.901 65.1751H595.763L595.108 68.1776H579.286L577.448 76.5756H598.884C602.696 76.5756 606.427 73.6458 607.209 70.0428L608.037 66.2396C608.829 62.6275 606.381 59.7069 602.569 59.7069H593.643L594.38 56.3586H610.202L611.404 50.8813H595.581V50.8631V50.854Z" fill="black"/>
<path d="M465.363 56.3216L466.564 50.8442H447.102C442.526 50.8442 438.049 54.3563 437.103 58.6872L434.91 68.7229C433.964 73.0538 436.903 76.5658 441.479 76.5658H460.941L462.779 68.1679H447.539L450.132 56.3125H465.372L465.363 56.3216Z" fill="black"/>
<path d="M496.034 50.854H477.555V50.8813C473.17 51.1452 469.002 54.5389 468.093 58.6969L465.9 68.7326C464.954 73.0635 467.892 76.5756 472.469 76.5756H490.42C494.997 76.5756 499.473 73.0635 500.42 68.7326L502.612 58.6969C503.559 54.366 500.62 50.854 496.043 50.854H496.034ZM488.009 68.1776H478.519L481.113 56.3222H490.602L488.009 68.1776Z" fill="black"/>
<path d="M571.543 50.854H545.312L539.689 76.5756H565.92C570.497 76.5756 574.973 73.0635 575.919 68.7326L578.112 58.6969C579.058 54.366 576.12 50.854 571.543 50.854ZM563.518 68.1776H554.028L556.621 56.3222H566.111L563.518 68.1776Z" fill="black"/>
</svg>
