<svg width="46" height="43" viewBox="0 0 46 43" fill="none" xmlns="http://www.w3.org/2000/svg">
    <path d="M45.0109 22.5991C43.9072 21.2019 41.3295 17.9327 39.9988 16.2387C39.5342 15.6484 39.2199 15.2502 39.1745 15.1874C38.9439 14.8974 38.5912 14.7298 38.2209 14.7298L35.8004 14.7403C34.5745 14.7612 33.4568 14.2024 32.8036 13.172C32.4578 12.7249 32.0422 12.3302 31.5742 12.0089C30.6416 11.1637 29.1641 9.81893 28.235 8.97368C27.9591 8.6209 27.6797 8.26813 27.4003 7.91536C27.1034 7.48924 26.6982 7.03518 26.1359 7.06312C24.5082 7.23776 23.6001 9.87482 23.897 11.3034C23.9843 11.967 24.5432 12.8926 24.9064 13.4375C24.9309 13.4759 24.882 13.5143 24.8505 13.4829C24.3441 12.9205 23.3836 11.8378 22.437 10.6362C21.7175 9.71066 20.8024 8.78856 19.6079 8.57201C18.546 8.3834 17.7811 9.67922 18.4517 10.521C19.1189 11.2335 19.6952 13.0358 18.312 13.2803C17.0267 11.6492 15.7448 10.0215 14.4595 8.39038C14.2534 8.12842 14.0473 7.86995 13.8413 7.608C12.8179 6.25629 11.309 5.29228 9.66388 4.89759C8.87801 4.71247 8.06069 4.6496 7.26084 4.73692C6.98491 4.76836 6.71946 4.8941 6.52387 5.08969C5.94057 4.34922 5.36077 3.61224 4.77747 2.87177C3.81346 1.6947 2.91581 0.0950031 1.22181 0.000697725C0.34512 -0.0307374 -0.294061 1.00662 0.139045 1.77853C0.418468 2.2291 0.792197 2.62029 1.10655 3.0499C1.52219 3.99645 1.1799 5.31672 0.949372 6.37155C0.34512 8.55454 0.362584 11.0763 1.78764 12.9345C3.44322 15.0372 5.1023 17.1398 6.75788 19.2425C5.31885 23.0252 7.77778 24.9043 9.83852 27.6426C8.66145 28.0059 6.67406 29.0467 7.80921 30.4508C8.3017 31.0761 8.79418 31.7013 9.28666 32.323C10.4044 33.7411 11.5186 35.1556 12.6362 36.5737C12.8563 36.8531 13.0763 37.1326 13.2964 37.412C13.5933 37.8381 13.981 38.2642 14.5398 38.2398C15.0637 38.1874 15.5597 37.9778 16.1081 38.0127C17.5541 38.0127 19.1363 38.7357 20.3413 39.9477C21.9969 41.6173 24.1764 42.5743 26.3175 42.5743C29.3073 42.5743 31.6789 40.8489 32.3635 37.9114C32.4159 37.6844 32.608 37.5203 32.842 37.5203H35.7096V37.5098H39.0278C39.7717 37.5098 40.4144 36.9928 40.5751 36.2698L41.3086 32.9796C41.4203 32.5325 41.2282 32.0925 40.9244 31.7676C40.7986 31.6035 40.6659 31.4428 40.5401 31.2751C40.376 31.0691 40.2118 30.8595 40.0477 30.6534C39.8591 30.4159 40.0302 30.0631 40.3341 30.0631H42.5415C43.2855 30.0631 43.9282 29.5462 44.0888 28.8232L45.2484 23.6259C45.3288 23.2627 45.2414 22.8855 45.0109 22.5956V22.5991ZM34.2811 25.3199L33.4847 28.8931H25.6015C25.1509 32.2496 23.4918 33.8738 20.4741 33.9471C18.6438 33.9471 16.7787 33.1089 15.3641 31.6838C13.6247 29.9374 11.082 28.9035 8.69638 29.6161C9.23078 29.1201 10.6034 28.4914 12.0809 28.4984C13.5409 28.4984 14.8227 29.1201 15.6505 29.5392C16.0697 29.8117 17.61 30.3985 18.4308 29.9269C19.5415 29.4205 19.7022 28.1212 19.4891 27.1921C19.2202 26.0185 18.0291 25.2466 16.8416 25.044C14.4804 24.6423 11.9726 25.994 9.69532 24.9287C6.69152 23.3919 7.06874 19.1831 9.7023 17.4332C8.67542 18.7954 9.13647 21.0028 10.5895 21.897C12.3149 22.9588 14.8926 21.9878 15.434 20.0214C16.2932 17.1293 13.6072 15.2782 10.9772 15.0057C9.33556 14.7752 7.64156 14.8555 6.05932 14.3596C3.35591 13.5178 1.63396 11.719 1.79113 8.63837C1.90989 6.3436 3.69471 3.34679 1.21832 1.23016C2.51065 1.45719 3.25811 2.86129 3.4537 4.16061C3.6493 5.45993 3.49911 6.81862 3.91475 8.06206C4.45963 9.70018 6.02789 10.9471 7.74634 11.1113C8.87801 11.2195 10.2157 10.7305 10.565 9.63731C11.0959 7.68833 8.9758 6.45887 7.38309 5.9594C9.49623 5.73237 11.6967 6.72432 12.9331 8.45325C13.6352 9.43822 14.0264 10.6083 14.5608 11.6911C15.2314 13.0917 16.4015 14.5342 18.0501 14.5307C20.7605 14.4888 20.9211 11.4326 19.4158 9.7875C19.4158 9.7875 20.4356 9.87831 21.6931 11.712C22.7863 13.3047 21.8328 14.6879 23.2578 16.1653C24.1101 17.049 25.2103 17.1678 26.073 17.1678C27.9137 17.2341 28.8183 15.6135 27.7984 14.2233C27.4457 13.7588 26.8624 13.5457 26.3839 13.2069C24.7527 12.1102 24.62 9.55348 26.1289 8.29258C25.4199 9.38583 25.8495 11.0659 26.9707 11.726C27.8019 12.2325 28.8428 12.1975 29.7719 12.4874C30.659 12.7634 31.4484 13.3501 31.9653 14.1255C33.4463 16.2806 35.9611 15.9732 38.214 15.9697L36.9915 21.4534H27.2536L26.3909 25.3234H34.2741L34.2811 25.3199Z" fill="#232323" />
</svg>
